<svg width="30" height="35" viewBox="0 0 30 35" fill="none" xmlns="http://www.w3.org/2000/svg">
<path d="M30 12.1856C30 9.63547 29.1447 7.52029 27.6845 5.86215C27.8431 5.50336 28.0083 5.02203 28.0903 4.41707C28.2784 3.03712 28.0564 2.20915 27.8683 1.39884C27.6801 0.58854 27.4581 0.0188978 27.4581 0.0188978C27.4581 0.0188978 26.4497 -0.0848743 25.5954 0.208778C24.7412 0.502431 24.0062 0.726534 22.9464 1.36462C22.4509 1.66269 21.9521 1.98946 21.5573 2.25441C19.8696 1.78192 18.0135 1.53905 16.0611 1.53905C14.0913 1.53905 12.2188 1.78302 10.5191 2.25883C10.1231 1.99277 9.62109 1.66379 9.12234 1.36352C8.06249 0.725431 7.32748 0.501328 6.47326 0.207675C5.61903 -0.0859776 4.61059 0.0177945 4.61059 0.0177945C4.61059 0.0177945 4.38856 0.587436 4.20043 1.39774C4.0123 2.20805 3.79027 3.03601 3.9784 4.41596C4.06262 5.03638 4.23324 5.52654 4.39621 5.88754C2.96339 7.53575 2.12338 9.63768 2.12338 12.1845C2.12338 18.7895 5.65841 21.8044 12.0996 22.6004C11.3481 23.4018 10.8439 24.4285 10.6744 25.5711C10.2511 25.7588 9.76328 25.9354 9.29406 26.0061C8.08655 26.1904 6.81014 26.0061 6.19544 25.6384C5.58075 25.2708 4.85122 24.4429 4.30434 23.637C3.84277 22.9569 3.17667 22.1676 2.57292 21.8894C1.77557 21.5218 1.00009 21.3838 0.568058 21.4522C0.13493 21.5218 -0.0696028 21.843 0.0211791 22.0738C0.111961 22.3034 0.545089 22.6489 1.00119 22.9017C1.45728 23.1545 2.16385 23.8445 2.57401 24.5113C3.0312 25.2554 3.12089 25.6848 3.50808 26.5349C3.78043 27.1332 4.71231 27.8806 5.37622 28.2824C5.94607 28.628 7.08467 28.8245 8.31624 28.8808C8.74171 28.9006 9.74688 28.7748 10.5945 28.6533V32.7932C10.5945 33.4986 9.95469 34.0351 9.29187 33.9115C11.4192 34.6335 13.691 35 16.0611 35C18.4302 35 20.702 34.6335 22.8315 33.9137C22.1698 34.0362 21.5299 33.4997 21.5299 32.7943V26.3869C21.5299 24.9198 20.9535 23.5939 20.0282 22.6059C26.4223 21.8309 30 18.8877 30 12.1856ZM2.1037 22.5551C1.93526 22.4679 1.84447 22.3067 1.90135 22.193C1.95822 22.0793 2.14198 22.0583 2.31042 22.1455C2.47885 22.2327 2.56964 22.3939 2.51276 22.5076C2.45588 22.6213 2.27213 22.6423 2.1037 22.5551ZM3.42933 23.3886C3.34074 23.4857 3.15042 23.4548 3.00386 23.3201C2.85729 23.1854 2.81026 22.9967 2.89886 22.8995C2.98745 22.8024 3.17776 22.8333 3.32433 22.968C3.47089 23.1027 3.51792 23.2914 3.42933 23.3886ZM4.25402 24.7685C4.14246 24.848 3.95324 24.774 3.83183 24.6029C3.71043 24.4318 3.70277 24.2276 3.81433 24.1481C3.9259 24.0686 4.11512 24.1426 4.23652 24.3137C4.35684 24.4848 4.36559 24.689 4.25402 24.7685ZM5.43856 25.8073C5.36309 25.931 5.14872 25.9365 4.96059 25.8206C4.77246 25.7047 4.68059 25.5104 4.75606 25.3867C4.83153 25.2631 5.0459 25.2576 5.23403 25.3735C5.42216 25.4894 5.51403 25.6837 5.43856 25.8073ZM6.55857 26.8241C6.3256 26.7954 6.15279 26.6486 6.17247 26.4962C6.19107 26.3439 6.3956 26.2445 6.62748 26.2732C6.86045 26.3019 7.03326 26.4487 7.01357 26.6011C6.99498 26.7523 6.79154 26.8528 6.55857 26.8241ZM8.36437 27.0879C8.11608 27.0736 7.92249 26.9301 7.93233 26.7689C7.94218 26.6077 8.15108 26.4874 8.39937 26.5017C8.64765 26.5161 8.84124 26.6596 8.8314 26.8208C8.82156 26.9831 8.61265 27.1023 8.36437 27.0879ZM10.0684 26.9157C9.80375 26.9157 9.58938 26.7766 9.58938 26.6055C9.58938 26.4344 9.80375 26.2953 10.0684 26.2953C10.3331 26.2953 10.5475 26.4344 10.5475 26.6055C10.5475 26.7766 10.332 26.9157 10.0684 26.9157Z" fill="#E40037"/>
</svg>
