<svg width="41" height="32" viewBox="0 0 41 32" fill="none" xmlns="http://www.w3.org/2000/svg">
<path d="M36.5135 0.00447799C35.4738 -0.0421606 34.4139 0.27598 33.5402 0.936784L31.1955 2.70919L20.5011 10.8045L9.90666 2.78603C9.75902 2.63831 9.56411 2.55035 9.35801 2.53844H9.57147L7.46693 0.943614C6.59264 0.281172 5.53112 -0.0387574 4.49023 0.00789304C3.44933 0.0545435 2.42987 0.467064 1.6386 1.26634C0.63343 2.28106 0.00933314 3.70036 0.00933314 5.25681V8.25863C-0.00311105 8.34411 -0.00311105 8.43099 0.00933314 8.51647V28.9401C0.00933314 30.6197 1.35736 32 2.99771 32H9.40137C9.62781 32 9.84497 31.9079 10.0051 31.7439C10.1652 31.58 10.2552 31.3576 10.2552 31.1257V16.5896L19.9941 23.961C20.1409 24.0719 20.3186 24.1318 20.5011 24.1318C20.6835 24.1318 20.8612 24.0719 21.008 23.961L30.7469 16.5896V31.1257C30.7469 31.3576 30.8369 31.58 30.997 31.7439C31.1571 31.9079 31.3743 32 31.6007 32H38.0044C39.6447 32 40.9928 30.6197 40.9928 28.9401V8.49939C41.0024 8.42402 41.0024 8.34767 40.9928 8.27229V5.25681C40.9928 3.71948 40.3869 2.30676 39.3952 1.29024C39.3665 1.26089 39.3569 1.25276 39.3685 1.26463C39.3668 1.26291 39.3652 1.26121 39.3635 1.25951C38.5724 0.462001 37.5532 0.0511164 36.5135 0.00447799ZM36.4202 1.75127C37.0659 1.7772 37.6919 2.02797 38.1662 2.506C38.1823 2.52232 38.1941 2.53465 38.1862 2.52649C38.8662 3.2235 39.2851 4.18888 39.2851 5.25681V7.95469L32.4546 13.1234V4.02398C32.4549 3.99435 32.4538 3.96471 32.4512 3.93519L34.5541 2.34378H34.5558C35.1096 1.92489 35.7744 1.72535 36.4202 1.75127ZM4.58362 1.75639C5.23008 1.73048 5.89719 1.92902 6.45135 2.3489L8.55088 3.93861C8.54841 3.96699 8.5473 3.99548 8.54755 4.02398V13.1234L1.71698 7.95469V5.25681C1.71698 4.17652 2.14539 3.20993 2.83762 2.51112C3.31171 2.03224 3.93715 1.78231 4.58362 1.75639ZM30.7469 5.22266V14.416L20.5011 22.1698L10.2552 14.416V5.22437L19.9941 12.5957C20.1409 12.7067 20.3186 12.7665 20.5011 12.7665C20.6835 12.7665 20.8612 12.7067 21.008 12.5957L30.7469 5.22266ZM1.71698 10.1284L8.54755 15.2987V30.2515H2.99771C2.27981 30.2515 1.71698 29.6752 1.71698 28.9401V10.1284ZM39.2851 10.1284V28.9401C39.2851 29.6752 38.7223 30.2515 38.0044 30.2515H32.4546V15.2987L39.2851 10.1284Z" fill="#E40037"/>
</svg>
