<svg width="34" height="34" viewBox="0 0 34 34" fill="none" xmlns="http://www.w3.org/2000/svg">
<path d="M9.20831 11.3333C10.3819 11.3333 11.3333 10.382 11.3333 9.20834C11.3333 8.03473 10.3819 7.08334 9.20831 7.08334C8.0347 7.08334 7.08331 8.03473 7.08331 9.20834C7.08331 10.382 8.0347 11.3333 9.20831 11.3333Z" fill="white"/>
<path d="M7.08331 14.1667C7.08331 13.3843 7.71758 12.75 8.49998 12.75H9.91665C10.699 12.75 11.3333 13.3843 11.3333 14.1667V25.5C11.3333 26.2824 10.699 26.9167 9.91665 26.9167H8.49998C7.71758 26.9167 7.08331 26.2824 7.08331 25.5V14.1667Z" fill="white"/>
<path d="M15.5834 26.9167H17C17.7824 26.9167 18.4167 26.2824 18.4167 25.5V19.125C18.4167 17 22.6667 15.5833 22.6667 18.4167V25.5006C22.6667 26.283 23.3009 26.9167 24.0834 26.9167H25.5C26.2824 26.9167 26.9167 26.2824 26.9167 25.5V17C26.9167 14.1667 24.7917 12.75 21.9584 12.75C19.125 12.75 18.4167 14.875 18.4167 14.875V14.1667C18.4167 13.3843 17.7824 12.75 17 12.75H15.5834C14.8009 12.75 14.1667 13.3843 14.1667 14.1667V25.5C14.1667 26.2824 14.8009 26.9167 15.5834 26.9167Z" fill="white"/>
<path fill-rule="evenodd" clip-rule="evenodd" d="M28.3334 1.41666C30.6806 1.41666 32.5834 3.31945 32.5834 5.66666V28.3333C32.5834 30.6806 30.6806 32.5833 28.3334 32.5833H5.66669C3.31948 32.5833 1.41669 30.6806 1.41669 28.3333V5.66666C1.41669 3.31945 3.31948 1.41666 5.66669 1.41666H28.3334ZM28.3334 4.24999C29.1158 4.24999 29.75 4.88426 29.75 5.66666V28.3333C29.75 29.1157 29.1158 29.75 28.3334 29.75H5.66669C4.88429 29.75 4.25002 29.1157 4.25002 28.3333V5.66666C4.25002 4.88426 4.88429 4.24999 5.66669 4.24999H28.3334Z" fill="white"/>
</svg>
