<svg width="87" height="113" viewBox="0 0 87 113" fill="none" xmlns="http://www.w3.org/2000/svg">
<line x1="1.40099" y1="112.006" x2="85.3757" y2="0.548693" stroke="url(#paint0_linear_102_9)" stroke-opacity="0.85" stroke-width="1.5"/>
<path fill-rule="evenodd" clip-rule="evenodd" d="M75.4556 67.4164C71.007 78.9817 59.7916 87.1892 46.6593 87.1892C29.6256 87.1892 15.817 73.3807 15.817 56.347C15.817 39.3133 29.6256 25.5047 46.6593 25.5047C59.7916 25.5047 71.007 33.7123 75.4556 45.2776H85.9837C81.1581 28.0995 65.3795 15.5047 46.6593 15.5047C24.1027 15.5047 5.81702 33.7904 5.81702 56.347C5.81702 78.9035 24.1027 97.1892 46.6593 97.1892C65.3795 97.1892 81.1581 84.5945 85.9837 67.4164H75.4556Z" fill="white"/>
<path d="M50.6108 68.4826L42.1148 57.3226V68.4826H35.9588V43.2106H42.1148V54.2986L50.5388 43.2106H57.7748L47.9828 55.5946L58.1348 68.4826H50.6108Z" fill="white"/>
<path d="M83.8428 61.3312L80.5388 56.9912V61.3312H78.1448V51.5032H80.5388V55.8152L83.8148 51.5032H86.6288L82.8208 56.3192L86.7688 61.3312H83.8428Z" fill="white"/>
<defs>
<linearGradient id="paint0_linear_102_9" x1="86.3741" y1="1.30088" x2="2.39934" y2="112.758" gradientUnits="userSpaceOnUse">
<stop/>
<stop offset="0.225" stop-color="#CCCCCC"/>
<stop offset="1"/>
</linearGradient>
</defs>
</svg>
